<svg id="visual" viewBox="0 0 960 540" width="960" height="540" xmlns="http://www.w3.org/2000/svg" xmlns:xlink="http://www.w3.org/1999/xlink" version="1.1"><rect width="960" height="540" fill="#5864ff"></rect><g><g transform="translate(755 85)"><path d="M50.3 -12.8C57.3 5.3 49.7 31.7 34.3 41.6C18.9 51.5 -4.5 44.9 -18.8 32.8C-33.2 20.7 -38.6 3.2 -34 -11.6C-29.4 -26.5 -14.7 -38.6 3.5 -39.8C21.6 -40.9 43.2 -31 50.3 -12.8Z" stroke="#f5f5f5" fill="none" stroke-width="20"></path></g><g transform="translate(607 443)"><path d="M31.1 -11.3C34.6 0.8 27.9 15 17 22.7C6.1 30.5 -9 31.9 -20.1 24.6C-31.1 17.3 -38.1 1.3 -34 -11.4C-30 -24.2 -15 -33.8 -0.6 -33.6C13.8 -33.4 27.6 -23.4 31.1 -11.3Z" stroke="#f5f5f5" fill="none" stroke-width="20"></path></g><g transform="translate(112 210)"><path d="M24.2 -7.9C27.6 2.6 24 15.4 14.1 23.5C4.3 31.6 -11.9 35.1 -21.8 28.3C-31.8 21.5 -35.5 4.4 -30.8 -7.9C-26.1 -20.2 -13.1 -27.6 -1.3 -27.1C10.4 -26.7 20.8 -18.4 24.2 -7.9Z" stroke="#f5f5f5" fill="none" stroke-width="20"></path></g></g></svg>