<svg width="286" height="278" viewBox="0 0 286 278" fill="none" xmlns="http://www.w3.org/2000/svg">
<path d="M203.003 7.01711C198.36 2.49242 192.206 0 185.649 0C179.093 0 172.939 2.49242 168.277 7.02669L154.437 20.5624C149.795 25.0871 147.233 31.1072 147.233 37.5204C147.233 42.0355 148.499 46.3589 150.874 50.1071L17.6134 102.246C8.70117 106.071 2.31148 113.922 0.515299 123.231C-1.30051 132.596 1.7422 142.202 8.70117 148.989L133.55 269.583C138.929 274.837 146.075 277.818 153.622 277.99C153.799 278 154.211 278 154.388 278C156.371 278 158.383 277.799 160.375 277.406C170.132 275.431 178.121 268.845 181.743 259.882L234.176 131.657C238.121 134.197 242.764 135.559 247.593 135.559C254.169 135.559 260.323 133.057 264.946 128.532L278.756 115.034C283.438 110.491 286 104.461 286 98.0381C286 91.6154 283.428 85.5761 278.815 81.0897L203.003 7.01711ZM163.516 252.76C162.299 255.76 159.62 257.974 156.381 258.626C155.635 258.78 154.879 258.837 154.133 258.828C151.64 258.77 149.235 257.792 147.439 256.028L22.5111 135.357C20.2144 133.124 19.2034 129.922 19.812 126.797C20.4107 123.691 22.5504 121.064 25.5244 119.799L86.5455 95.9292C127.661 109.283 168.787 96.4181 209.922 139.278L163.516 252.76ZM264.937 101.422L251.058 114.967C249.144 116.846 246.033 116.846 244.119 114.967L226.765 98.0285L212.71 132.433L213.878 129.529C184.334 100.722 154.31 97.0891 127.22 93.8394C118.514 92.7945 110.072 91.7016 101.779 89.957L185.119 57.3543L168.286 40.9139C166.372 39.0446 166.372 36.0058 168.286 34.1365L182.165 20.572C184.079 18.7027 187.19 18.7027 189.104 20.572L264.927 94.6446C266.87 96.5139 266.87 99.5528 264.937 101.422Z" fill="#FFFFFF"/>
<path d="M161.956 172.552C175.481 172.552 186.494 161.806 186.494 148.586C186.494 135.367 175.491 124.621 161.956 124.621C148.42 124.621 137.418 135.367 137.418 148.586C137.418 161.806 148.43 172.552 161.956 172.552ZM161.956 134.207C170.083 134.207 176.678 140.649 176.678 148.586C176.678 156.524 170.083 162.966 161.956 162.966C153.819 162.966 147.233 156.524 147.233 148.586C147.233 140.649 153.819 134.207 161.956 134.207Z" fill="#FFFFFF"/>
<path d="M78.5264 134.207C78.5264 144.78 87.3307 153.379 98.1568 153.379C108.983 153.379 117.787 144.78 117.787 134.207C117.787 123.633 108.983 115.034 98.1568 115.034C87.3307 115.034 78.5264 123.633 78.5264 134.207ZM98.1568 124.621C103.575 124.621 107.972 128.906 107.972 134.207C107.972 139.508 103.575 143.793 98.1568 143.793C92.7388 143.793 88.3416 139.508 88.3416 134.207C88.3416 128.906 92.7388 124.621 98.1568 124.621Z" fill="#FFFFFF"/>
<path d="M127.602 201.31C133.023 201.31 137.418 197.018 137.418 191.724C137.418 186.43 133.023 182.138 127.602 182.138C122.182 182.138 117.787 186.43 117.787 191.724C117.787 197.018 122.182 201.31 127.602 201.31Z" fill="#FFFFFF"/>
</svg>
